<svg width="130" height="55" viewBox="0 0 130 55" fill="none" xmlns="http://www.w3.org/2000/svg">
<path d="M65.848 37V19.12H77.632V21.64H68.68V26.776H77.152V29.296H68.68V34.48H77.632V37H65.848ZM81.1501 42.304C80.8301 42.304 80.5101 42.272 80.1901 42.208C79.8861 42.16 79.6061 42.08 79.3501 41.968V39.64C79.5421 39.688 79.7741 39.728 80.0461 39.76C80.3181 39.808 80.5821 39.832 80.8381 39.832C81.5901 39.832 82.1421 39.664 82.4941 39.328C82.8621 39.008 83.1901 38.504 83.4781 37.816L84.3421 35.848L84.2941 38.128L78.6781 24.016H81.5821L85.7341 34.84H84.7501L88.8781 24.016H91.8061L86.0701 38.416C85.7661 39.184 85.3821 39.856 84.9181 40.432C84.4701 41.024 83.9341 41.48 83.3101 41.8C82.7021 42.136 81.9821 42.304 81.1501 42.304ZM99.5238 37.288C98.2278 37.288 97.0758 36.992 96.0678 36.4C95.0758 35.792 94.2998 34.976 93.7398 33.952C93.1798 32.912 92.8998 31.752 92.8998 30.472C92.8998 29.16 93.1798 28 93.7398 26.992C94.3158 25.984 95.0838 25.192 96.0438 24.616C97.0038 24.024 98.0918 23.728 99.3078 23.728C100.284 23.728 101.156 23.896 101.924 24.232C102.692 24.568 103.34 25.032 103.868 25.624C104.396 26.2 104.796 26.864 105.068 27.616C105.356 28.368 105.5 29.168 105.5 30.016C105.5 30.224 105.492 30.44 105.476 30.664C105.46 30.888 105.428 31.096 105.38 31.288H95.0358V29.128H103.844L102.548 30.112C102.708 29.328 102.652 28.632 102.38 28.024C102.124 27.4 101.724 26.912 101.18 26.56C100.652 26.192 100.028 26.008 99.3078 26.008C98.5878 26.008 97.9478 26.192 97.3878 26.56C96.8278 26.912 96.3958 27.424 96.0918 28.096C95.7878 28.752 95.6678 29.552 95.7318 30.496C95.6518 31.376 95.7718 32.144 96.0918 32.8C96.4278 33.456 96.8918 33.968 97.4838 34.336C98.0918 34.704 98.7798 34.888 99.5478 34.888C100.332 34.888 100.996 34.712 101.54 34.36C102.1 34.008 102.54 33.552 102.86 32.992L105.068 34.072C104.812 34.68 104.412 35.232 103.868 35.728C103.34 36.208 102.7 36.592 101.948 36.88C101.212 37.152 100.404 37.288 99.5238 37.288ZM115.107 37.288C113.779 37.288 112.595 37.008 111.555 36.448C110.531 35.888 109.723 35.12 109.131 34.144C108.555 33.168 108.267 32.056 108.267 30.808V19.12H111.099V30.688C111.099 31.472 111.267 32.168 111.603 32.776C111.955 33.384 112.427 33.856 113.019 34.192C113.627 34.528 114.323 34.696 115.107 34.696C115.907 34.696 116.603 34.528 117.195 34.192C117.803 33.856 118.275 33.384 118.611 32.776C118.963 32.168 119.139 31.472 119.139 30.688V19.12H121.947V30.808C121.947 32.056 121.659 33.168 121.083 34.144C120.507 35.12 119.699 35.888 118.659 36.448C117.635 37.008 116.451 37.288 115.107 37.288ZM126.432 37V33.88H129.192V37H126.432Z" fill="#1D1D1D"/>
<path d="M32 31C35.866 31 39 34.134 39 38C39 41.866 35.866 45 32 45C28.134 45 25 41.866 25 38C25 34.134 28.134 31 32 31Z" fill="#2447FF"/>
<path d="M21 20C24.866 20 28 23.134 28 27C28 30.866 24.866 34 21 34C17.134 34 14 30.866 14 27C14 23.134 17.134 20 21 20Z" fill="#2447FF"/>
<path d="M32 9C35.866 9 39 12.134 39 16C39 19.866 35.866 23 32 23C28.134 23 25 19.866 25 16C25 12.134 28.134 9 32 9Z" fill="#2447FF"/>
<path d="M43 20C46.866 20 50 23.134 50 27C50 30.866 46.866 34 43 34C39.134 34 36 30.866 36 27C36 23.134 39.134 20 43 20Z" fill="#2447FF"/>
</svg>
